<?xml version="1.0" standalone="no"?>
<!DOCTYPE svg PUBLIC "-//W3C//DTD SVG 1.1//EN" "http://www.w3.org/Graphics/SVG/1.1/DTD/svg11.dtd" >
<svg xmlns="http://www.w3.org/2000/svg">
<metadata>Generated by IcoMoon</metadata>
<defs>
<font id="icomoon" horiz-adv-x="1024">
<font-face units-per-em="1024" ascent="960" descent="-64" />
<missing-glyph horiz-adv-x="1024" />
<glyph unicode="&#x20;" horiz-adv-x="512" d="" />
<glyph unicode="&#xe5cd;" glyph-name="close" d="M810 664.667l-238-238 238-238-60-60-238 238-238-238-60 60 238 238-238 238 60 60 238-238 238 238z" />
<glyph unicode="&#xe8b6;" glyph-name="search" d="M932.698-69.762l-253.474 252.433c-74.49-64.905-168.214-100.466-265.785-100.466-227.967 0-413.439 192.108-413.439 428.23 0 236.124 185.473 428.232 413.439 428.232s413.441-192.109 413.441-428.232c0-88.644-25.816-173.117-74.815-245.338l255.397-254.35c10.661-10.633 16.538-24.934 16.538-40.255 0-14.507-5.336-28.268-15.047-38.713-20.617-22.192-54.807-22.898-76.254-1.542zM107.853 510.436c0-174.534 137.082-316.517 305.585-316.517 168.505 0 305.585 141.983 305.585 316.517s-137.079 316.52-305.585 316.52c-168.503 0-305.585-141.987-305.585-316.52z" />
<glyph unicode="&#xe900;" glyph-name="eye" d="M931.029 408.32c-3.541 5.077-87.979 125.611-204.501 208-60.416 42.795-136.619 66.347-214.528 66.347-77.867 0-154.069-23.552-214.613-66.347-116.523-82.389-200.875-202.923-204.416-208-10.155-14.635-10.155-34.048 0-48.683 3.541-5.077 87.893-125.611 204.416-208 60.544-42.752 136.747-66.304 214.613-66.304 77.909 0 154.112 23.552 214.528 66.347 116.523 82.389 200.96 202.923 204.501 208 10.197 14.592 10.197 34.048 0 48.64zM512 234.667c-82.517 0-149.333 66.987-149.333 149.333 0 82.517 66.816 149.333 149.333 149.333 82.347 0 149.333-66.816 149.333-149.333 0-82.347-66.987-149.333-149.333-149.333zM597.333 384c0-47.019-38.315-85.333-85.333-85.333-47.147 0-85.333 38.315-85.333 85.333 0 47.147 38.187 85.333 85.333 85.333 47.019 0 85.333-38.187 85.333-85.333z" />
<glyph unicode="&#xe901;" glyph-name="notice" d="M496 838.857c-229.76 0-416-186.24-416-416s186.24-416 416-416 416 186.24 416 416-186.24 416-416 416zM496 186.857c-26.528 0-48 21.504-48 48s21.472 48 48 48c26.496 0 48-21.504 48-48s-21.504-48-48-48zM544 394.857c0-26.496-21.504-48-48-48-26.528 0-48 21.504-48 48v224c0 26.528 21.472 48 48 48 26.496 0 48-21.472 48-48v-224z" />
<glyph unicode="&#xe902;" glyph-name="repo" horiz-adv-x="912" d="M455.89 960c-251.797 0-455.89-200.213-455.89-447.224 0-168.98 95.482-315.848 236.334-391.947l-5.361-184.829 215.107 130.052c3.246-0.072 6.492-0.501 9.811-0.501 251.797 0 455.89 200.213 455.89 447.224s-204.093 447.224-455.89 447.224zM435.43 243.798c-40.702 0-68.42 29.41-68.42 68.622 0 40.036 28.411 68.694 68.42 68.694 41.577 0 68.493-28.658 69.222-68.694 0.036-39.106-27.609-68.622-69.222-68.622zM528.468 524.476c-28.411-30.949-39.972-60.322-39.17-94.383v-13.487h-102.302l-0.802 19.57c-2.298 38.427 10.759 77.745 45.443 118.425 24.545 28.73 44.604 52.844 44.604 78.497 0 26.369-17.761 43.721-56.239 45.188-25.275 0-56.129-8.98-76.006-22.612l-26.186 82.325c27.682 15.813 73.745 30.804 128.379 30.804 101.572 0 147.636-55.027 147.636-117.673 0.036-57.244-36.070-94.954-65.356-126.653z" />
<glyph unicode="&#xe903;" glyph-name="angle-down" horiz-adv-x="658" d="M614.286 530.286c0-4.571-2.286-9.714-5.714-13.143l-266.286-266.286c-3.429-3.429-8.571-5.714-13.143-5.714s-9.714 2.286-13.143 5.714l-266.286 266.286c-3.429 3.429-5.714 8.571-5.714 13.143s2.286 9.714 5.714 13.143l28.571 28.571c3.429 3.429 8 5.714 13.143 5.714 4.571 0 9.714-2.286 13.143-5.714l224.571-224.571 224.571 224.571c3.429 3.429 8.571 5.714 13.143 5.714s9.714-2.286 13.143-5.714l28.571-28.571c3.429-3.429 5.714-8.571 5.714-13.143z" />
<glyph unicode="&#xe904;" glyph-name="report" d="M779.026 785.156c0 24.024-9.375 46.64-26.367 63.632l-84.844 84.844c-16.757 16.758-40.543 26.368-64.214 26.368h-5.157v-180.001h180.585l-0.003 5.157zM547.875 340.925c5.742 17.432 15.762 33.662 28.828 46.817l203.123 202.306v129.953h-210.8c-16.581 0-29.025 13.417-29.025 29.999v210.001h-450.001c-49.628 0-90-40.372-90-90v-844.001c0-49.629 40.372-90 90-90h599.027c49.629 0 90.8 40.372 90.8 90v223.901l-32.968-32.167c-13.358-13.242-29.001-22.88-46.639-28.77l-95.389-31.846-14.533-0.792c-24.024 0-46.757 11.69-60.878 31.26-14.004 19.482-17.811 44.737-10.196 67.558l28.652 85.782zM150 419.999h299.027c16.581 0 30-13.417 30-30 0-16.581-13.419-30-30-30h-299.027c-16.582 0-30 13.419-30 30 0 16.583 13.418 30 30 30zM120 509.999c0 16.583 13.418 30 30 30h299.027c16.581 0 30-13.417 30-30s-13.419-30-30-30h-299.027c-16.582 0-30 13.417-30 30zM120 270c0 16.581 13.418 30 30 30h299.027c16.581 0 30-13.419 30-30 0-16.583-13.419-30-30-30h-299.027c-16.582 0-30 13.417-30 30zM569.026 119.999c16.583 0 30-13.417 30-30s-13.416-30-30-30h-179.999c-16.583 0-30 13.417-30 30s13.417 30 30 30h179.999zM150 600c-16.582 0-30 13.417-30 30 0 16.581 13.418 30 30 30h419.026c16.583 0 30-13.419 30-30 0-16.583-13.417-30-30-30h-419.026zM602.221 314.385l-26.1-78.302c-3.911-11.73 7.251-22.889 18.981-18.97l78.257 26.136-71.137 71.136zM835.22 561.384l-197.579-197.579 85.211-85.209c44.656 44.663 131.546 131.566 197.568 197.588l-85.2 85.2zM1006.37 647.431c-10.546 10.605-26.074 16.67-42.54 16.67s-31.992-6.065-42.598-16.7l-43.593-43.593 85.195-85.197c23.867 23.868 40.362 40.364 43.598 43.598 23.434 23.471 23.433 61.698-0.061 85.223zM1006.433 562.208c0.002 0 0.002 0.002 0.003 0.005 0.076 0.075 0.11 0.11 0.173 0.171-0.063-0.064-0.096-0.098-0.176-0.176zM1006.609 562.384c0.095 0.095 0.208 0.208 0.266 0.266-0.061-0.061-0.171-0.171-0.266-0.266zM1006.873 562.635c0.211 0.211 0.215 0.215 0 0v0z" />
<glyph unicode="&#xe905;" glyph-name="schedule" horiz-adv-x="1223" d="M1120.792 807.163h-254.724v50.946c0 56.193-45.695 101.891-101.891 101.891h-305.672c-56.193 0-101.891-45.695-101.891-101.891v-50.944h-254.724c-56.196-0.002-101.891-45.698-101.891-101.891v-152.836c0-56.195 45.695-101.891 101.891-101.891h407.563v25.473c0 14.081 11.392 25.475 25.473 25.475h152.836c14.079 0 25.473-11.394 25.473-25.475v-25.473h407.563c56.19 0 101.885 45.696 101.885 101.891v152.836c0 56.193-45.695 101.89-101.891 101.89zM764.178 807.163h-305.672v50.946h305.672v-50.946zM1208.554 423.060c-8.68 4.302-19.054 3.307-26.717-2.513-18.11-13.708-39.205-20.946-61.046-20.946h-407.558v-76.418c0-14.079-11.392-25.473-25.473-25.473h-152.836c-14.079 0-25.473 11.394-25.473 25.473v76.418h-407.559c-21.841 0-42.935 7.238-61.046 20.946-7.687 5.87-18.034 6.865-26.717 2.513-8.654-4.305-14.128-13.135-14.128-22.814v-357.263c0-56.193 45.695-101.891 101.891-101.891h1018.904c56.193 0 101.891 45.696 101.891 101.891v357.263c-0.003 9.679-5.476 18.508-14.133 22.814z" />
<glyph unicode="&#xe906;" glyph-name="user" horiz-adv-x="1220" d="M728.169 785.709c55.793-34.982 94.916-94.178 102.039-162.891 22.754-10.632 48.008-16.745 74.782-16.745 97.747 0 176.971 79.224 176.971 176.956 0 97.747-79.224 176.971-176.971 176.971-96.813-0.030-175.345-77.839-176.821-174.291zM612.232 423.364c97.747 0 176.971 79.24 176.971 176.971s-79.24 176.956-176.971 176.956c-97.732 0-177.001-79.24-177.001-176.971s79.27-176.956 177.001-176.956zM687.3 411.302h-150.167c-124.943 0-226.59-101.662-226.59-226.605v-183.642l0.467-2.876 12.649-3.96c119.236-37.256 222.825-49.679 308.088-49.679 166.536 0 263.063 47.48 269.011 50.507l11.821 5.978h1.265v183.672c0.045 124.943-101.602 226.605-226.545 226.605zM980.088 593.995h-149.007c-1.611-59.618-27.061-113.303-67.313-151.913 111.059-33.024 192.316-136.011 192.316-257.656v-56.591c147.125 5.391 231.906 47.089 237.493 49.89l11.821 5.993h1.265v183.703c0 124.928-101.647 226.575-226.575 226.575zM301.704 606.042c34.62 0 66.831 10.104 94.118 27.317 8.674 56.576 39.002 106.014 82.327 139.686 0.181 3.313 0.497 6.596 0.497 9.939 0 97.747-79.24 176.971-176.941 176.971-97.762 0-176.971-79.224-176.971-176.971 0-97.702 79.209-176.941 176.971-176.941zM460.634 442.082c-40.056 38.415-65.416 91.814-67.268 151.070-5.527 0.407-10.993 0.843-16.625 0.843h-150.152c-124.943 0-226.59-101.647-226.59-226.575v-183.672l0.467-2.831 12.649-3.991c95.654-29.862 181.022-43.625 255.172-47.962v55.462c0.030 121.645 81.257 224.602 192.346 257.656z" />
<glyph unicode="&#xe907;" glyph-name="audit" horiz-adv-x="1314" d="M1269.086 925.82c-22.786 22.791-50.185 34.18-82.178 34.18h-1070.542c-31.999 0-59.398-11.389-82.186-34.18-22.791-22.796-34.18-50.182-34.18-82.186v-791.276c0-32.010 11.389-59.383 34.18-82.189 22.786-22.786 50.184-34.17 82.186-34.17h1070.545c31.993 0 59.39 11.383 82.178 34.17 22.795 22.806 34.179 50.194 34.179 82.189v791.276c-0.002 32.004-11.383 59.401-34.182 82.186zM1210.166 52.377c0-6.306-2.3-11.759-6.902-16.364-4.596-4.611-10.060-6.893-16.353-6.893h-1070.545c-6.302 0-11.756 2.282-16.361 6.893-4.608 4.605-6.908 10.058-6.908 16.364v605.077c0 6.304 2.3 11.762 6.908 16.372 4.608 4.6 10.059 6.901 16.361 6.901h1070.545c6.294 0 11.75-2.293 16.353-6.901 4.602-4.61 6.902-10.067 6.902-16.372v-605.077zM256 215.265h-46.543c-6.303 0-11.756-2.282-16.363-6.885-4.602-4.613-6.908-10.069-6.908-16.372v-46.542c0-6.312 2.306-11.758 6.908-16.372 4.608-4.61 10.060-6.894 16.363-6.894h46.543c6.3 0 11.756 2.285 16.361 6.894 4.603 4.614 6.91 10.060 6.91 16.372v46.542c0 6.303-2.306 11.759-6.91 16.372-4.605 4.585-10.061 6.885-16.361 6.885zM256 401.471h-46.543c-6.303 0-11.756-2.319-16.363-6.914-4.602-4.613-6.908-10.069-6.908-16.364v-46.546c0-6.315 2.306-11.742 6.908-16.375 4.608-4.585 10.060-6.893 16.363-6.893h46.543c6.3 0 11.756 2.308 16.361 6.893 4.603 4.629 6.91 10.060 6.91 16.375v46.546c0 6.295-2.306 11.77-6.91 16.364-4.605 4.596-10.061 6.914-16.361 6.914zM256 587.634h-46.543c-6.303 0-11.756-2.297-16.363-6.897-4.602-4.616-6.908-10.060-6.908-16.361v-46.555c0-6.298 2.306-11.755 6.908-16.364 4.608-4.593 10.060-6.908 16.363-6.908h46.543c6.3 0 11.756 2.306 16.361 6.908 4.603 4.61 6.91 10.066 6.91 16.364v46.555c0 6.301-2.306 11.756-6.91 16.361-4.605 4.596-10.061 6.897-16.361 6.897zM1093.808 215.265h-698.18c-6.3 0-11.756-2.282-16.361-6.885-4.603-4.613-6.908-10.069-6.908-16.372v-46.542c0-6.312 2.305-11.758 6.908-16.372 4.608-4.61 10.064-6.894 16.361-6.894h698.188c6.315 0 11.761 2.285 16.373 6.894 4.593 4.614 6.896 10.060 6.896 16.372v46.542c0 6.303-2.311 11.759-6.905 16.372-4.603 4.603-10.063 6.885-16.372 6.885zM1093.808 401.471h-698.18c-6.3 0-11.756-2.319-16.361-6.914-4.603-4.613-6.908-10.069-6.908-16.364v-46.546c0-6.315 2.305-11.742 6.908-16.375 4.608-4.585 10.064-6.893 16.361-6.893h698.188c6.315 0 11.761 2.308 16.373 6.893 4.593 4.629 6.896 10.060 6.896 16.375v46.546c0 6.295-2.311 11.77-6.905 16.364-4.603 4.596-10.063 6.914-16.372 6.914zM1093.808 587.634h-698.18c-6.3 0-11.756-2.297-16.361-6.897-4.603-4.616-6.908-10.060-6.908-16.361v-46.555c0-6.298 2.305-11.765 6.908-16.364 4.608-4.593 10.064-6.908 16.361-6.908h698.188c6.315 0 11.779 2.306 16.373 6.908 4.593 4.61 6.896 10.066 6.896 16.364v46.555c0 6.301-2.311 11.756-6.905 16.361-4.603 4.596-10.063 6.897-16.372 6.897z" />
<glyph unicode="&#xe908;" glyph-name="angle-right" horiz-adv-x="347" d="M340 402.286c0-4.571-2.286-9.714-5.714-13.143l-266.286-266.286c-3.429-3.429-8.571-5.714-13.143-5.714s-9.714 2.286-13.143 5.714l-28.571 28.571c-3.429 3.429-5.714 8-5.714 13.143 0 4.571 2.286 9.714 5.714 13.143l224.571 224.571-224.571 224.571c-3.429 3.429-5.714 8.571-5.714 13.143s2.286 9.714 5.714 13.143l28.571 28.571c3.429 3.429 8.571 5.714 13.143 5.714s9.714-2.286 13.143-5.714l266.286-266.286c3.429-3.429 5.714-8.571 5.714-13.143z" />
<glyph unicode="&#xe909;" glyph-name="plane-spinner" horiz-adv-x="876" d="M856.128 424.985c0.325 6.759 0.487 13.558 0.487 20.401 0 6.838-0.162 13.642-0.487 20.401l19.668 0.94c0.34-7.070 0.512-14.188 0.512-21.342 0-7.158-0.172-14.272-0.512-21.346l-19.668 0.945zM842.058 555.192l19.008 5.154c-3.751 13.827-8.162 27.383-13.194 40.631l-18.407-6.994c4.805-12.648 9.014-25.59 12.593-38.791zM788.322 674.584l16.468 10.8c-7.823 11.927-16.212 23.448-25.127 34.525l-15.34-12.347c8.517-10.582 16.527-21.587 24-32.978zM700.332 771.553l12.347 15.341c-11.077 8.915-22.602 17.303-34.526 25.125l-10.801-16.467c11.392-7.471 22.395-15.483 32.98-24zM586.752 836.695l6.996 18.408c-13.248 5.033-26.806 9.443-40.63 13.193l-5.154-19.006c13.199-3.581 26.142-7.791 38.789-12.596zM458.555 863.358l0.944 19.67c-7.074 0.34-14.19 0.512-21.345 0.512s-14.271-0.172-21.345-0.512l0.944-19.67c6.759 0.324 13.561 0.489 20.401 0.489s13.641-0.164 20.401-0.489zM328.347 849.291l-5.155 19.006c-13.827-3.75-27.383-8.16-40.631-13.193l6.995-18.408c12.648 4.805 25.59 9.016 38.791 12.596zM208.955 795.553l-10.8 16.466c-11.927-7.822-23.447-16.21-34.525-25.125l12.347-15.341c10.582 8.516 21.587 16.529 32.978 24zM111.986 707.561l-15.341 12.347c-8.916-11.077-17.304-22.598-25.126-34.525l16.467-10.8c7.471 11.392 15.484 22.396 24 32.978zM46.844 593.983l-18.408 6.994c-5.034-13.248-9.443-26.804-13.194-40.631l19.006-5.154c3.58 13.201 7.79 26.143 12.596 38.791zM20.181 465.787c-0.324-6.759-0.489-13.563-0.489-20.401 0-6.843 0.164-13.642 0.489-20.401l-19.67-0.945c-0.34 7.074-0.511 14.188-0.511 21.346 0 7.153 0.172 14.272 0.511 21.342l19.67-0.94zM34.248 335.577l-19.006-5.154c3.75-13.824 8.16-27.382 13.194-40.63l18.408 6.996c-4.806 12.647-9.016 25.59-12.596 38.789zM87.986 216.187l-16.467-10.801c7.822-11.929 16.21-23.449 25.126-34.526l15.341 12.347c-8.516 10.58-16.529 21.588-24 32.98zM175.977 119.217l-12.347-15.34c11.077-8.916 22.598-17.305 34.525-25.127l10.8 16.468c-11.392 7.468-22.397 15.483-32.978 24zM289.556 54.075l-6.995-18.407c13.248-5.036 26.804-9.442 40.631-13.194l5.154 19.003c-13.201 3.584-26.143 7.793-38.79 12.598zM417.753 27.412l-0.944-19.668c7.074-0.34 14.19-0.512 21.345-0.512s14.271 0.172 21.345 0.512l-0.944 19.668c-6.759-0.325-13.561-0.487-20.401-0.487s-13.641 0.162-20.401 0.487zM547.963 41.477l5.154-19.003c13.824 3.751 27.382 8.158 40.63 13.194l-6.996 18.407c-12.647-4.805-25.59-9.014-38.789-12.598zM667.353 95.217l10.801-16.468c11.924 7.823 23.449 16.212 34.526 25.127l-12.347 15.34c-10.585-8.517-21.588-16.532-32.98-24zM764.322 183.207l15.34-12.347c8.916 11.077 17.305 22.597 25.127 34.526l-16.468 10.801c-7.473-11.392-15.483-22.4-24-32.98zM829.465 296.788l18.407-6.996c5.031 13.248 9.442 26.806 13.194 40.63l-19.008 5.154c-3.579-13.199-7.788-26.142-12.593-38.789zM535.754 869.21c0 7.646-6.69 14.335-14.336 14.335h-52.563l-47.784 76.455h-19.114l23.892-76.455h-52.563l-14.335 19.114h-14.336l9.557-33.449-9.557-33.449h14.336l14.335 19.114h52.563l-23.892-76.455h19.114l47.784 76.455h52.563c7.646 0 14.336 6.69 14.336 14.336zM345.477 27.367c0-7.646 6.69-14.336 14.336-14.336h52.563l47.784-76.455h19.114l-23.892 76.455h52.562l14.336-19.111h14.336l-9.556 33.447 9.556 33.447h-14.336l-14.336-19.111h-52.562l23.892 76.455h-19.114l-47.784-76.455h-52.563c-7.646 0-14.336-6.69-14.336-14.336z" />
<glyph unicode="&#xe90a;" glyph-name="angle-left" horiz-adv-x="384" d="M358.286 640c0-4.571-2.286-9.714-5.714-13.143l-224.571-224.571 224.571-224.571c3.429-3.429 5.714-8.571 5.714-13.143s-2.286-9.714-5.714-13.143l-28.571-28.571c-3.429-3.429-8.571-5.714-13.143-5.714s-9.714 2.286-13.143 5.714l-266.286 266.286c-3.429 3.429-5.714 8.571-5.714 13.143s2.286 9.714 5.714 13.143l266.286 266.286c3.429 3.429 8.571 5.714 13.143 5.714s9.714-2.286 13.143-5.714l28.571-28.571c3.429-3.429 5.714-8 5.714-13.143z" />
<glyph unicode="&#xe90b;" glyph-name="unlock-alt" horiz-adv-x="796" d="M686.222 576h-458.664v128c0 94.125 76.539 170.664 170.664 170.664s170.664-76.539 170.664-170.664c0-23.555 19.078-42.664 42.67-42.664 23.598 0 42.667 19.109 42.667 42.664 0 141.187-114.813 256-256 256s-256-114.813-256-256v-128h-32c-52.906 0-96-43.047-96-96v-448c0-52.952 43.094-96 96-96h576c52.907 0 96 43.048 96 96v448c0 52.953-43.093 96-96 96z" />
<glyph unicode="&#xe90c;" glyph-name="calendar" d="M870.4 819.2h-51.2v-102.4h-153.6v102.4h-307.2v-102.4h-153.6v102.4h-51.2c-56.371 0-102.4-46.080-102.4-102.4v-614.4c0-56.32 46.029-102.4 102.4-102.4h716.8c56.32 0 102.4 46.080 102.4 102.4v614.4c0 56.32-46.080 102.4-102.4 102.4zM870.4 102.4h-716.8v409.6h716.8v-409.6zM332.8 921.6h-102.4v-179.2h102.4v179.2zM793.6 921.6h-102.4v-179.2h102.4v179.2z" />
<glyph unicode="&#xe90d;" glyph-name="edit-pencil" d="M636.746 789.94l208.304-208.303-527.274-527.275-208.187 208.299 527.156 527.279zM1003.116 840.178l-92.894 92.896c-35.903 35.901-94.197 35.901-130.224 0l-88.98-88.985 208.304-208.305 103.794 103.796c27.847 27.847 27.847 72.753 0 100.598zM0.58-30.123c-3.791-17.061 11.613-32.347 28.676-28.2l232.121 56.28-208.187 208.304-52.61-236.385z" />
<glyph unicode="&#xe90e;" glyph-name="list" d="M51.2 768h102.4v-102.4h-102.4v102.4zM256 768h716.8v-102.4h-716.8v102.4zM51.2 512h102.4v-102.4h-102.4v102.4zM256 512h716.8v-102.4h-716.8v102.4zM51.2 256h102.4v-102.4h-102.4v102.4zM256 256h716.8v-102.4h-716.8v102.4z" />
<glyph unicode="&#xe90f;" glyph-name="checkmark" d="M512 864c-229.76 0-416-186.24-416-416s186.24-416 416-416 416 186.24 416 416-186.24 416-416 416zM744.256 566.176l-303.552-303.52c-7.616-7.584-19.936-7.584-27.552 0l-6.112 6.112-0.032-0.032-167.008 168.192c-7.616 7.616-7.616 19.968 0 27.584l41.408 41.376c7.616 7.616 19.968 7.616 27.584 0l118.048-118.912 248.192 248.192c7.616 7.616 19.968 7.616 27.584 0l41.408-41.408c7.648-7.584 7.648-19.936 0.032-27.584z" />
<glyph unicode="&#xe910;" glyph-name="warning" d="M977.76 152.992l-400.608 685.952c-33.408 33.408-87.616 33.408-121.024 0l-400.64-685.952c-33.408-33.376-33.408-87.552 0-120.992h922.24c33.472 33.44 33.472 87.616 0.032 120.992zM479.744 592.704c0 26.528 21.504 48 48 48s48-21.472 48-48v-224c0-26.496-21.504-48-48-48s-48 21.504-48 48v224zM528.032 160.448c-26.496 0-48 21.44-48 48 0 26.496 21.504 48 48 48s48-21.504 48-48c0-26.56-21.504-48-48-48z" />
<glyph unicode="&#xe911;" glyph-name="download" d="M768 614.4h-153.6v307.2h-204.8v-307.2h-153.6l256-256 256 256zM990.106 279.962c-10.752 11.469-82.483 88.218-102.963 108.237-13.568 13.261-32.973 21.402-53.35 21.402h-89.958l156.877-153.293h-181.453c-5.222 0-9.933-2.662-12.288-6.81l-41.779-95.898h-306.381l-41.779 95.898c-2.355 4.147-7.117 6.81-12.288 6.81h-181.453l156.826 153.293h-89.907c-20.326 0-39.731-8.141-53.35-21.402-20.48-20.070-92.211-96.819-102.963-108.237-25.037-26.675-38.81-47.923-32.256-74.189l28.723-157.389c6.554-26.317 35.379-47.923 64.102-47.923h835.174c28.723 0 57.549 21.606 64.102 47.923l28.723 157.389c6.451 26.266-7.27 47.514-32.358 74.189z" />
<glyph unicode="&#xe912;" glyph-name="checkmark1" d="M927.936 687.008l-68.288 68.288c-12.608 12.576-32.96 12.576-45.536 0l-409.44-409.44-194.752 196.16c-12.576 12.576-32.928 12.576-45.536 0l-68.288-68.288c-12.576-12.608-12.576-32.96 0-45.536l285.568-287.488c12.576-12.576 32.96-12.576 45.536 0l500.736 500.768c12.576 12.544 12.576 32.96 0 45.536z" />
<glyph unicode="&#xe913;" glyph-name="grid" d="M256 480h224v224h-224v-224zM544 704v-224h224v224h-224zM544 192h224v224h-224v-224zM256 192h224v224h-224v-224z" />
<glyph unicode="&#xe914;" glyph-name="list1" d="M256 576h128v128h-128v-128zM256 384h128v128h-128v-128zM256 192h128v128h-128v-128zM448 704v-128h320v128h-320zM448 384h320v128h-320v-128zM448 192h320v128h-320v-128z" />
<glyph unicode="&#xe915;" glyph-name="close-thick" d="M626.784 447.968l195.072-195.072c12.672-12.672 12.672-33.248 0-45.92l-68.832-68.832c-12.672-12.672-33.216-12.672-45.92 0l-195.104 195.072-195.104-195.072c-12.672-12.672-33.216-12.672-45.888 0l-68.864 68.832c-12.672 12.672-12.672 33.216 0 45.92l195.104 195.072-195.104 195.104c-12.672 12.672-12.672 33.248 0 45.92l68.896 68.832c12.672 12.672 33.216 12.672 45.888 0l195.072-195.104 195.104 195.104c12.672 12.672 33.216 12.672 45.92 0l68.832-68.864c12.672-12.672 12.672-33.216 0-45.92l-195.072-195.072z" />
<glyph unicode="&#xe916;" glyph-name="close-solid" d="M150.016 98.816c-96.436 93.233-156.308 223.762-156.308 368.276 0 282.77 229.23 512 512 512 144.514 0 275.043-59.872 368.137-156.164l0.138-0.144c88.925-91.979 143.724-217.436 143.724-355.692 0-282.77-229.23-512-512-512-138.256 0-263.713 54.799-355.836 143.863l0.144-0.138zM583.68 460.8l144.896 144.896-72.192 72.192-144.384-144.896-144.896 144.896-72.192-72.192 144.896-144.896-144.896-144.896 72.192-72.192 144.896 144.896 144.896-144.896 72.192 72.192-144.896 144.896z" />
<glyph unicode="&#xe917;" glyph-name="email" horiz-adv-x="1354" d="M1353.292 811.855l-365.276-363.843 365.102-363.579c1.993 25.21 1.126 715.538 0.173 727.423zM1221.706 933.661h-1089.087c-35.427 0.003-68.026-13.953-91.837-36.77 248.195-247.222 378.021-376.534 605.135-602.76 17.23-17.23 45.2-17.246 62.433-0.071 228.555 227.662 378.35 376.87 604.984 602.619-23.965 23.143-56.389 36.982-91.628 36.982zM1.071 811.823c-0.989-12.189-1.878-702.373 0.159-727.579l365.778 363.077-365.937 364.501zM925.442 385.678l-154.715-154.105c-51.547-51.547-135.358-51.768-187.189 0.058l-153.972 153.37-388.453-385.589c23.812-22.857 55.966-37.094 91.507-37.094h1089.087c35.567 0 67.752 14.258 91.567 37.146l-387.832 386.213z" />
<glyph unicode="&#xe918;" glyph-name="external-link" d="M725.333 384v-256c0-11.776-4.736-22.4-12.501-30.165s-18.389-12.501-30.165-12.501h-469.333c-11.776 0-22.4 4.736-30.165 12.501s-12.501 18.389-12.501 30.165v469.333c0 11.776 4.736 22.4 12.501 30.165s18.389 12.501 30.165 12.501h256c23.552 0 42.667 19.115 42.667 42.667s-19.115 42.667-42.667 42.667h-256c-35.328 0-67.413-14.379-90.496-37.504s-37.504-55.168-37.504-90.496v-469.333c0-35.328 14.379-67.413 37.504-90.496s55.168-37.504 90.496-37.504h469.333c35.328 0 67.413 14.379 90.496 37.504s37.504 55.168 37.504 90.496v256c0 23.552-19.115 42.667-42.667 42.667s-42.667-19.115-42.667-42.667zM456.832 311.168l396.501 396.501v-153.003c0-23.552 19.115-42.667 42.667-42.667s42.667 19.115 42.667 42.667v256c0 5.803-1.152 11.307-3.243 16.341s-5.163 9.728-9.216 13.781c-0.043 0.043-0.043 0.043-0.085 0.085-3.925 3.925-8.619 7.083-13.781 9.216-5.035 2.091-10.539 3.243-16.341 3.243h-256c-23.552 0-42.667-19.115-42.667-42.667s19.115-42.667 42.667-42.667h153.003l-396.501-396.501c-16.683-16.683-16.683-43.691 0-60.331s43.691-16.683 60.331 0z" />
<glyph unicode="&#xe919;" glyph-name="undo" d="M560.967-48.327c205.412 23.006 370.037 187.216 393.464 392.624 30.748 268.588-178.011 497.221-439.693 500.149v120.487c0 6.694-8.367 10.25-14.015 6.066l-248.086-182.195c-4.184-3.137-4.184-9.203 0-12.341l248.086-182.195c5.648-4.184 14.015-0.419 14.015 6.066v120.278c183.869-2.929 331.131-159.394 318.582-346.398-10.672-160.859-141.824-291.391-302.684-301.636-170.481-10.877-315.442 110.865-341.38 271.929-4.811 29.912-30.959 51.666-61.080 51.666-37.443 0-66.728-33.257-60.871-70.281 36.397-229.473 248.296-401.624 493.662-374.221z" />
<glyph unicode="&#xe91a;" glyph-name="plane" d="M1024 473.6c0 40.96-35.84 76.8-76.8 76.8h-281.6l-256 409.6h-102.4l128-409.6h-281.6l-76.8 102.4h-76.8l51.2-179.2-51.2-179.2h76.8l76.8 102.4h281.6l-128-409.6h102.4l256 409.6h281.6c40.96 0 76.8 35.84 76.8 76.8z" />
<glyph unicode="&#xe91b;" glyph-name="not-pinned" horiz-adv-x="853" d="M229.22 275.655c7.702 2.196 15.859 2.236 23.581 0.114l2.010-0.552 1.851-0.961c4.468-2.31 8.416-5.507 11.602-9.398s5.542-8.391 6.924-13.227c1.382-4.841 1.76-9.904 1.11-14.894-0.641-4.921-2.268-9.665-4.784-13.943l-150.012-261.643-24.177-6.047h-18.402l-4.879 3.089c-7.182 4.545-12.574 11.435-15.262 19.502-2.688 8.061-2.508 16.805 0.51 24.752l0.558 1.473 147.76 257.718 1.527 1.655c5.433 5.882 12.381 10.16 20.082 12.362zM419.761 916.278c-4.68-2.7-8.466-6.716-10.885-11.553-2.456-4.912-3.389-10.446-2.679-15.892l0.167-1.281v-51.517c0.226-4.197-0.339-8.401-1.67-12.393-1.287-3.86-3.265-7.45-5.834-10.594l-227.747-326.324-10.619-10.619-101.11-45.325c-5.218-2.822-9.699-6.835-13.078-11.716-3.411-4.927-5.598-10.592-6.385-16.528-0.411-5.562 0.689-11.134 3.185-16.123 2.501-5.006 6.309-9.233 11.017-12.242l411.363-236.026 16.55-4.733 20.97 4.665c3.112 2.913 5.599 6.451 7.29 10.394 2.178 5.086 2.956 10.655 2.252 16.139l-0.043 0.341-10.224 109.056c-0.385 4.534 0.159 9.102 1.599 13.42 1.068 3.209 2.614 6.224 4.578 8.96l171.012 362.542 15.559 10.374 45.733 24.6c5.359 2.58 9.961 6.509 13.352 11.403 3.26 4.714 5.291 10.168 5.905 15.863 0.011 5.12-1.399 10.147-4.090 14.515-2.793 4.544-6.849 8.179-11.668 10.464l-0.762 0.359-292.067 169.808c-4.881 2.528-10.3 3.849-15.8 3.849-5.526 0-10.97-1.333-15.869-3.885zM400.853 951.344c10.71 5.684 22.651 8.656 34.777 8.656s24.066-2.972 34.777-8.656l0.341-0.181 291.392-169.413c11.429-5.606 21.038-14.338 27.716-25.189 6.838-11.111 10.303-23.967 9.978-37.008l-0.011-0.635-0.057-0.634c-1.143-12.802-5.586-25.088-12.902-35.655-7.225-10.433-16.998-18.838-28.393-24.412l-42.906-23.102-4.79-3.194-168.546-357.245 9.878-105.364c1.529-12.419-0.263-25.025-5.195-36.534-4.98-11.622-12.981-21.697-23.171-29.178l-3.377-2.48-39.553-8.789-30.938 8.841-416.575 239.036c-11.057 6.901-19.993 16.725-25.822 28.388-5.83 11.657-8.327 24.702-7.217 37.69l0.031 0.364 0.044 0.362c1.528 12.477 6.065 24.395 13.22 34.73s16.714 18.777 27.854 24.599l0.531 0.278 95.572 42.842 2.949 2.95 226.069 323.92v48.754c-1.404 12.863 0.923 25.868 6.718 37.459 6.005 12.010 15.46 21.952 27.152 28.554l0.456 0.249z" />
<glyph unicode="&#xe91c;" glyph-name="pinned" horiz-adv-x="819" d="M488.304 125.327l-22.489 6.426-391.951 224.891c-7.526 4.7-13.608 11.387-17.576 19.323s-5.668 16.814-4.913 25.651c1.076 8.786 4.269 17.178 9.306 24.448 5.037 7.276 11.766 13.22 19.608 17.321l93.169 41.763 6.426 6.426 215.251 308.42c1.163 1.304 2.047 2.831 2.599 4.488s0.761 3.409 0.613 5.15v48.19c-1.157 8.884 0.365 17.912 4.371 25.926s10.316 14.648 18.118 19.053c7.421 3.938 15.694 5.997 24.095 5.997s16.674-2.059 24.096-5.997l276.291-160.636c7.869-3.728 14.484-9.658 19.046-17.072s6.876-15.991 6.656-24.693c-0.788-8.87-3.866-17.382-8.934-24.704s-11.955-13.2-19.978-17.061l-41.764-22.489-9.641-6.426-160.635-340.55c-1.162-1.3-2.048-2.826-2.601-4.485-0.548-1.659-0.758-3.41-0.609-5.151l9.636-102.804c1.096-8.535-0.113-17.208-3.502-25.119s-8.837-14.766-15.775-19.86l-28.914-6.426zM141.335 3.241h-9.638c-3.128 1.976-5.477 4.977-6.648 8.489s-1.092 7.322 0.222 10.783l138.147 240.957c2.799 3.031 6.377 5.233 10.343 6.364s8.168 1.152 12.146 0.061c1.946-1.009 3.665-2.401 5.053-4.096s2.414-3.656 3.016-5.765c0.602-2.104 0.766-4.311 0.484-6.482-0.283-2.176-1.007-4.265-2.128-6.149l-138.147-240.952-12.851-3.21z" />
<glyph unicode="&#xe91d;" glyph-name="plane-arrive" horiz-adv-x="1182" d="M462.318 385.696l535.806-131.983c44.371-10.957 89.852 13.249 101.778 54.016s-14.423 82.553-58.793 93.508l-294.805 72.617-152.809 459.646-107.327 26.501v-421.937l-275.391 67.775-51.583 118.225-80.425 19.873v-263.712l383.549-94.528zM1146.88 14.769h-1146.88v-78.769h1146.88v78.769z" />
<glyph unicode="&#xe91e;" glyph-name="plane-depart" horiz-adv-x="1339" d="M1276.873 891.539c-29.011 50.249-93.641 66.858-143.281 36.817l-271.73-164.433-298.365 196.077-181.483-103.431 230.262-243.677-279.68-169.243-134.042 60.589-124.708-72.001 186.782-127.428 156.225-7.095 820.266 451.328c50.838 27.971 68.773 92.247 39.755 142.497zM1147.148 39.077h-1147.148v-75.634h1147.148v75.634z" />
<glyph unicode="&#xe91f;" glyph-name="cleaning" horiz-adv-x="585" d="M54.15 779.172l93.795 1.678 4.331-48.861h145.797l59.885 146.578h129.249v81.433c0 0-236.853 0-267.228 0s-49.054-19.69-49.054-19.69c0 0-93.306-91.824-120.065-115.829-45.244-40.571 3.289-45.309 3.289-45.309zM503.483 887.705l48.859 13.24v31.546l-48.859 17.313v-62.099zM324.331 715.661h-195.438v-65.146h195.438v65.146zM405.771 237.264c0 148.615-80.295 183.907-88.958 192.051s-14.332 15.7-14.332 31.985c0 16.285 21.857 28.405 21.857 45.374 0 29.853-20.961 34.593-20.961 48.845 0 24.444 18.273 23.68 18.273 44.037 0 27.9-18.224 34.69-18.224 34.69s-135.226 1.010-165.6 0c-124.966-201.546-122.931-407.161-122.931-407.161s0-175.082 0-223.938c0-48.859 23.698-52.933 23.698-52.933s322.83 0 347.13 0c24.302 0 20.048 32.574 20.048 32.574s0 52.93 0 254.475zM544.26 683.116c-74.053 76.252-75.209 179.152-75.209 179.152h-89.103c18.516-108.582 86.66-167.035 132.407-194.428 23.797-14.25 31.773-12.183 35.573-7.311 9.637 12.407-3.668 22.587-3.668 22.587z" />
<glyph unicode="&#xe920;" glyph-name="security" horiz-adv-x="914" d="M458.726 647.518c-106.089 0-192.396-86.307-192.396-192.39 0-106.090 86.307-192.399 192.396-192.399 106.086 0 192.391 86.309 192.391 192.399 0 106.083-86.305 192.39-192.391 192.39zM572.954 491.359l-137.83-137.83c-5.786-5.786-13.374-8.682-20.955-8.682s-15.159 2.889-20.944 8.682l-52.673 52.67c-11.571 11.564-11.571 30.325 0 41.896 11.564 11.571 30.321 11.571 41.896 0l31.722-31.726 116.893 116.882c11.564 11.571 30.321 11.571 41.893 0 11.571-11.56 11.571-30.321 0-41.893zM887.654 686.024l-0.029 0.786c-0.439 9.699-0.731 19.961-0.911 31.378-0.823 55.676-45.082 101.73-100.765 104.843-116.1 6.479-205.912 44.336-282.65 119.133l-0.655 0.624c-25.029 22.95-62.786 22.95-87.826 0l-0.655-0.624c-76.737-74.797-166.55-112.654-282.647-119.141-55.676-3.105-99.943-49.159-100.767-104.843-0.169-11.34-0.47-21.602-0.909-31.37l-0.046-1.826c-2.257-118.387-5.061-265.722 44.228-399.457 27.102-73.541 68.149-137.468 121.991-190.014 61.323-59.845 141.644-107.355 238.729-141.206 3.16-1.101 6.44-1.997 9.783-2.666 4.714-0.94 9.461-1.408 14.208-1.408 4.743 0 9.498 0.468 14.204 1.408 3.343 0.669 6.649 1.573 9.823 2.681 96.969 33.913 177.203 81.448 238.475 141.283 53.819 52.564 94.866 116.506 121.991 190.062 49.474 134.133 46.676 281.75 44.427 400.357zM458.715 203.451c-138.761 0-251.647 112.885-251.647 251.648s112.885 251.649 251.647 251.649c138.756 0 251.648-112.886 251.648-251.649s-112.892-251.648-251.648-251.648z" />
<glyph unicode="&#xe921;" glyph-name="cancel" d="M512 910.222c-251.362 0-455.111-203.749-455.111-455.111s203.749-455.111 455.111-455.111 455.111 203.749 455.111 455.111-203.749 455.111-455.111 455.111zM170.667 455.111c0 73.639 23.666 141.694 63.472 197.527l475.388-475.388c-55.833-39.806-123.888-63.472-197.527-63.472-188.222 0-341.333 153.111-341.333 341.333zM789.861 257.584l-475.388 475.388c55.833 39.806 123.888 63.472 197.527 63.472 188.222 0 341.333-153.111 341.333-341.333 0-73.639-23.666-141.694-63.472-197.527z" />
<glyph unicode="&#xe922;" glyph-name="trash" d="M307.2 870.4l102.4 102.4h204.8l102.4-102.4h204.8v-102.4h-819.2v102.4h204.8zM153.6 665.6h716.8l-51.2-716.8h-614.4l-51.2 716.8zM409.6 563.2v-512h51.2v512h-51.2zM563.2 563.2v-512h51.2v512h-51.2z" />
<glyph unicode="&#xe923;" glyph-name="crop_square" d="M768 170.667v512h-512v-512h512zM768 768.667q34 0 60-26t26-60v-512q0-34-26-60t-60-26h-512q-34 0-60 26t-26 60v512q0 34 26 60t60 26h512z" />
<glyph unicode="&#xe924;" glyph-name="baggage" horiz-adv-x="989" d="M236.853 351.977h495.371c44.081 0 79.826 35.741 79.826 79.826v343.88c0 44.101-35.755 79.834-79.826 79.834h-112.439c-0.629 47.314-39.262 85.62-86.722 85.62h-93.233c-47.461 0-86.090-38.306-86.715-85.62h-116.261c-44.084 0-79.818-35.742-79.818-79.834v-343.88c0-44.092 35.734-79.826 79.818-79.826zM439.829 888.802h93.244c18.591 0 33.69-14.829 34.318-33.272h-161.884c0.632 18.443 15.72 33.272 34.322 33.272zM121.776 51.242c38.546 0 69.793 31.246 69.793 69.791 0 38.548-31.248 69.794-69.793 69.794s-69.793-31.246-69.793-69.794c0-38.545 31.248-69.791 69.793-69.791zM370.398 51.242c38.545 0 69.791 31.246 69.791 69.791 0 38.548-31.246 69.794-69.791 69.794-38.548 0-69.795-31.246-69.795-69.794 0-38.545 31.248-69.791 69.795-69.791zM619.036 51.242c38.545 0 69.791 31.246 69.791 69.791 0 38.548-31.246 69.794-69.791 69.794-38.548 0-69.794-31.246-69.794-69.794 0-38.545 31.246-69.791 69.794-69.791zM867.692 51.242c38.545 0 69.791 31.246 69.791 69.791 0 38.548-31.246 69.794-69.791 69.794-38.548 0-69.794-31.246-69.794-69.794 0-38.545 31.246-69.791 69.794-69.791zM960.752 277.31h-942.2v-52.344h942.2v52.344zM960.752 18.552h-942.2v-52.344h942.2v52.344z" />
<glyph unicode="&#xe925;" glyph-name="boarding" horiz-adv-x="805" d="M768.816 356.619l-0.527 0.139c0 0-4.418 1.189-10.865 1.485-2.417 0.282-4.429 0.947-7.139 0.947h-248.825c0 0-2.838-0.044-6.967-0.699-2.45 0.088-4.977 0.066-7.684-0.187l-207.94-18.432-36.405 101.391h322.356c0 0 48.391 0 48.391 49.042v0.567c0 0 0 49.053-48.391 49.053h-357.783l-61.643 171.643c0 0-0.108 0.283-0.226 0.566v174.289c0 0 0 73.576-72.584 73.576 0 0-72.584 0-72.584-73.576v-183.636c0 0 0.086-12.342 5.041-26.886 0.881-4.684 2.074-9.521 3.934-14.685l168.515-469.258c0 0 4.256-11.582 13.855-23.552 10.222-15.21 27.849-28.423 58.59-28.423h154.403v-126.051h-198.73c0 0-36.298 0-36.298-36.787v-4.37c0 0 0-36.776 36.298-36.776h493.28c0 0 36.286 0 36.286 36.776v4.37c0 0 0 36.787-36.286 36.787h-198.729v126.051h195.493c0 0 0.377 0.011 0.991 0.033h25.966c14.566-0.709 39.877 3.116 48.596 36.125l31.846 120.419c0 0 12.511 47.364-34.235 60.058z" />
<glyph unicode="&#xe926;" glyph-name="cargo" horiz-adv-x="951" d="M279.666 115.507c-45.571 0-82.648-37.072-82.648-82.651 0-45.572 37.077-82.651 82.648-82.651 45.573 0 82.65 37.076 82.65 82.651-0.003 45.579-37.080 82.651-82.65 82.651zM800.113 115.507c-45.572 0-82.648-37.072-82.648-82.651 0-45.572 37.076-82.651 82.648-82.651s82.648 37.076 82.648 82.651c-0.004 45.579-37.076 82.651-82.648 82.651zM867.818 241.371h-657.714v593.059c0 14.362-6.327 27.992-17.294 37.261l-90.854 76.782c-20.578 17.394-51.358 14.807-68.752-5.768-17.391-20.578-14.81-51.358 5.771-68.749l73.56-62.17v-619.197c0-26.949 21.842-48.783 48.784-48.783h706.499c26.949 0 48.786 21.84 48.786 48.783s-21.844 48.783-48.786 48.783zM286.132 289.975h592.804c19.493 0 35.295 15.799 35.295 35.295v154.745c0 19.493-15.799 35.299-35.295 35.299h-592.804c-19.493 0-35.293-15.806-35.293-35.299v-154.745c0-19.493 15.799-35.295 35.293-35.295zM505.721 420.557c0 4.517 3.661 8.177 8.174 8.177h137.278c4.517 0 8.174-3.661 8.174-8.177v-35.836c0-4.513-3.661-8.174-8.174-8.174h-137.278c-4.513 0-8.174 3.661-8.174 8.174v35.836zM286.132 548.506h592.804c19.493 0 35.295 15.799 35.295 35.295v154.743c0 19.493-15.799 35.295-35.295 35.295h-592.804c-19.493 0-35.293-15.802-35.293-35.295v-154.743c0-19.496 15.799-35.295 35.293-35.295zM505.721 679.091c0 4.513 3.661 8.174 8.174 8.174h137.278c4.517 0 8.174-3.661 8.174-8.174v-35.835c0-4.513-3.661-8.174-8.174-8.174h-137.278c-4.513 0-8.174 3.661-8.174 8.174v35.835z" />
<glyph unicode="&#xe927;" glyph-name="catering" horiz-adv-x="1061" d="M1002.704 98.984l-858.549 858.551h-36.153l-7.382-18.758c-19.483-49.51-27.808-100.148-24.071-146.434 4.26-52.76 24.303-98.439 57.967-132.102l361.132-361.131 47.631 47.634 333.864-373.325c33.214-33.211 90.379-35.185 125.561 0 34.622 34.619 34.622 90.946 0 125.564zM328.298 382.749l-282.836-282.836c-34.616-34.615-34.616-90.942 0-125.561 32.885-32.881 89.773-35.785 125.561 0l282.836 282.84-125.561 125.557zM986.101 789.405l-160.443-160.439-41.856 41.854 160.443 160.441-41.856 41.854-160.439-160.439-41.852 41.854 160.439 160.439-41.852 41.852-209.269-209.271c-25.6-25.601-40.887-59.594-43.048-95.721-0.549-9.153-2.622-18.156-6.064-26.719l135.943-135.942c8.561 3.445 17.569 5.519 26.719 6.064 36.125 2.158 70.118 17.448 95.718 43.048l209.273 209.269-41.856 41.856z" />
<glyph unicode="&#xe928;" glyph-name="connection" horiz-adv-x="907" d="M406.44 77.274c10.219 11.905 9.271 31.605-2.107 42.245l-78.275 73.534 31.289 185.416-28.444 26.759-66.897-152.125-78.275 73.429 4.319 49.725-21.386 20.016-30.657-65.317-59.101-38.453 21.386-20.016 46.986 9.587 78.275-73.429-138.114-85.333 28.444-26.759 173.722 51.937 78.275-73.429c11.378-10.746 30.235-9.692 40.56 2.212zM502.308 821.254c-10.43-11.694-9.798-31.394 1.37-42.351l77.011-74.904-34.449-184.889 28.023-27.286 69.531 150.861 77.011-74.904-5.162-49.62 20.965-20.438 31.71 64.685 59.733 37.505-20.965 20.438-47.091-8.744-77.011 74.904 139.483 82.805-28.023 27.286-174.565-48.777-77.011 74.904c-11.167 10.956-30.13 10.219-40.56-1.475zM880.408 386.581l-42.667 37.821c-3.687 3.266-8.533 4.846-13.379 4.425s-9.376-2.844-12.431-6.637l-36.346-44.458c-6.321-7.691-5.373-19.384 2.002-26.021 3.266-2.95 7.48-4.53 11.905-4.53 5.373 0 10.43 2.423 13.906 6.637l5.267 6.532c-3.582-62.999-26.759-123.259-66.37-171.72-48.461-59.312-116.095-95.447-190.578-101.663-9.903-0.843-17.383-9.798-16.645-20.016 0.737-9.587 8.639-17.172 18.12-17.172 0.527 0 0.948 0 1.475 0.105 84.174 7.058 160.658 47.829 215.44 114.831 46.775 57.31 73.113 129.053 75.114 203.641l11.272-10.008c3.687-3.266 8.428-4.846 13.274-4.53 4.951 0.421 9.376 2.739 12.537 6.637 6.426 7.901 5.478 19.595-1.896 26.127zM386.212 814.933c-0.737 9.587-8.639 17.172-18.12 17.172-0.527 0-1.053 0-1.475-0.105-84.174-7.058-160.658-47.829-215.44-114.831-46.67-57.31-73.113-129.053-75.114-203.641l-11.272 10.008c-3.687 3.266-8.428 4.846-13.274 4.53-4.951-0.421-9.376-2.739-12.537-6.637-6.321-7.691-5.373-19.384 2.002-26.021l42.772-37.926c3.266-2.95 7.585-4.53 11.905-4.53 0.527 0 0.948 0 1.475 0.105 4.846 0.421 9.376 2.844 12.431 6.637l36.346 44.458c6.321 7.691 5.373 19.384-2.002 26.021-3.266 2.95-7.48 4.53-11.905 4.53-5.373 0-10.43-2.423-13.906-6.637l-5.267-6.532c3.582 62.999 26.759 123.259 66.37 171.72 48.461 59.312 116.095 95.447 190.578 101.663 9.798 0.843 17.277 9.798 16.435 20.016z" />
<glyph unicode="&#xe929;" glyph-name="wb_sunny" d="M152 146.667l76 78 60-60-76-78zM470-19.333v126h84v-126h-84zM512 704.667q106 0 181-75t75-181-75-181-181-75-181 75-75 181 75 181 181 75zM854 490.667h128v-86h-128v86zM736 164.667l60 58 76-76-60-60zM872 748.667l-76-76-60 60 76 76zM554 914.667v-126h-84v126h84zM170 490.667v-86h-128v86h128zM288 732.667l-60-60-76 76 60 60z" />
<glyph unicode="&#xe92a;" glyph-name="brightness_2" d="M426 852.667q178 0 303-125t125-301-125-301-303-125q-116 0-212 56 98 56 155 155t57 215-57 215-155 155q96 56 212 56z" />
<glyph unicode="&#xe92b;" glyph-name="minimize" d="M256 128.667h512v-86h-512v86z" />
<glyph unicode="&#xe92c;" glyph-name="progress-spinner" d="M245.771 232.978c-25.606 0-47.365-8.96-65.287-26.88-17.915-17.935-26.879-39.689-26.879-65.295 0-25.609 8.957-47.363 26.879-65.298 17.928-17.92 39.688-26.877 65.287-26.877 25.175 0 46.825 8.957 64.961 26.877 18.131 17.914 27.196 39.689 27.196 65.298 0 25.606-9.062 47.345-27.196 65.295-18.139 17.905-39.786 26.88-64.961 26.88zM225.293 427.526c0 28.16-10.022 52.26-30.078 72.331-20.054 20.052-44.164 30.078-72.323 30.078-28.161 0-52.267-10.029-72.323-30.078-20.051-20.055-30.075-44.162-30.075-72.331 0-28.154 10.022-52.248 30.075-72.309 20.056-20.058 44.162-30.088 72.323-30.088 28.159 0 52.269 10.029 72.323 30.088 20.055 20.046 30.078 44.155 30.078 72.309zM819.203 663.032c14.068 0 26.139 5.021 36.153 15.043 10.026 10.031 15.050 22.089 15.050 36.166 0 14.084-5.024 26.132-15.050 36.157-10.020 10.031-22.085 15.043-36.153 15.043-14.086 0-26.145-5.021-36.171-15.043-10.020-10.026-15.035-22.073-15.035-36.157s5.015-26.135 15.035-36.166c10.026-10.031 22.085-15.043 36.171-15.043zM245.779 826.875c-31.152 0-57.71-10.988-79.684-32.958-21.977-21.97-32.958-48.531-32.958-79.675 0-31.156 10.981-57.707 32.958-79.684 21.981-21.977 48.54-32.964 79.684-32.964s57.705 10.993 79.675 32.964c21.971 21.977 32.958 48.534 32.958 79.684 0 31.145-10.987 57.705-32.958 79.675s-48.53 32.958-79.675 32.958zM985.597 471.052c-11.945 11.948-26.449 17.914-43.511 17.914-17.077 0-31.581-5.966-43.526-17.914-11.936-11.948-17.902-26.458-17.902-43.535 0-17.059 5.966-31.587 17.902-43.508 11.951-11.954 26.449-17.92 43.526-17.92 17.062 0 31.575 5.966 43.511 17.92 11.951 11.933 17.911 26.449 17.911 43.508 0 17.068-5.951 31.581-17.911 43.535zM819.203 212.489c-19.64 0-36.494-7.035-50.577-21.118-14.068-14.068-21.109-30.928-21.109-50.568 0-19.625 7.042-36.485 21.109-50.571 14.083-14.083 30.94-21.109 50.577-21.109 19.622 0 36.475 7.042 50.558 21.109 14.083 14.083 21.118 30.937 21.118 50.571 0 19.64-7.035 36.482-21.118 50.568s-30.937 21.118-50.558 21.118zM532.486 99.861c-22.612 0-41.921-8.017-57.931-24.019-15.995-16.005-23.998-35.301-23.998-57.916s7.993-41.915 23.998-57.916c16.011-16.005 35.31-24.013 57.931-24.013 22.615 0 41.915 8.008 57.919 24.013 16.002 16.002 24.004 35.301 24.004 57.916s-8.002 41.912-24.004 57.916c-16.005 16.002-35.304 24.019-57.919 24.019zM532.486 960c-34.129 0-63.154-11.941-87.049-35.834-23.889-23.895-35.834-52.915-35.834-87.046 0-34.133 11.939-63.139 35.834-87.037 23.895-23.889 52.914-35.836 87.049-35.836 34.144 0 63.151 11.941 87.037 35.836 23.886 23.887 35.831 52.904 35.831 87.037 0 34.128-11.945 63.141-35.831 87.046-23.886 23.887-52.893 35.834-87.037 35.834z" />
<glyph unicode="&#xea2a;" glyph-name="volume-mute2" d="M960 340.852v-84.852h-84.852l-107.148 107.148-107.148-107.148h-84.852v84.852l107.148 107.148-107.148 107.148v84.852h84.852l107.148-107.148 107.148 107.148h84.852v-84.852l-107.148-107.148 107.148-107.148zM416.006 0c-8.328 0-16.512 3.25-22.634 9.374l-246.626 246.626h-114.746c-17.672 0-32 14.326-32 32v320c0 17.672 14.328 32 32 32h114.746l246.626 246.628c9.154 9.154 22.916 11.89 34.874 6.936 11.958-4.952 19.754-16.622 19.754-29.564v-832c0-12.944-7.796-24.612-19.754-29.564-3.958-1.64-8.118-2.436-12.24-2.436z" />
<glyph unicode="&#xf023;" glyph-name="lock" horiz-adv-x="658" d="M182.857 512h292.571v109.714c0 80.571-65.714 146.286-146.286 146.286s-146.286-65.714-146.286-146.286v-109.714zM658.286 457.143v-329.143c0-30.286-24.571-54.857-54.857-54.857h-548.571c-30.286 0-54.857 24.571-54.857 54.857v329.143c0 30.286 24.571 54.857 54.857 54.857h18.286v109.714c0 140.571 115.429 256 256 256s256-115.429 256-256v-109.714h18.286c30.286 0 54.857-24.571 54.857-54.857z" />
<glyph unicode="&#xf0d7;" glyph-name="caret-down" horiz-adv-x="585" d="M585.143 548.571c0-9.714-4-18.857-10.857-25.714l-256-256c-6.857-6.857-16-10.857-25.714-10.857s-18.857 4-25.714 10.857l-256 256c-6.857 6.857-10.857 16-10.857 25.714 0 20 16.571 36.571 36.571 36.571h512c20 0 36.571-16.571 36.571-36.571z" />
<glyph unicode="&#xf0dc;" glyph-name="sort, unsorted" horiz-adv-x="585" d="M585.143 329.143c0-9.714-4-18.857-10.857-25.714l-256-256c-6.857-6.857-16-10.857-25.714-10.857s-18.857 4-25.714 10.857l-256 256c-6.857 6.857-10.857 16-10.857 25.714 0 20 16.571 36.571 36.571 36.571h512c20 0 36.571-16.571 36.571-36.571zM585.143 548.571c0-20-16.571-36.571-36.571-36.571h-512c-20 0-36.571 16.571-36.571 36.571 0 9.714 4 18.857 10.857 25.714l256 256c6.857 6.857 16 10.857 25.714 10.857s18.857-4 25.714-10.857l256-256c6.857-6.857 10.857-16 10.857-25.714z" />
<glyph unicode="&#xf106;" glyph-name="angle-up" horiz-adv-x="658" d="M614.286 274.286c0-4.571-2.286-9.714-5.714-13.143l-28.571-28.571c-3.429-3.429-8-5.714-13.143-5.714-4.571 0-9.714 2.286-13.143 5.714l-224.571 224.571-224.571-224.571c-3.429-3.429-8.571-5.714-13.143-5.714s-9.714 2.286-13.143 5.714l-28.571 28.571c-3.429 3.429-5.714 8.571-5.714 13.143s2.286 9.714 5.714 13.143l266.286 266.286c3.429 3.429 8.571 5.714 13.143 5.714s9.714-2.286 13.143-5.714l266.286-266.286c3.429-3.429 5.714-8.571 5.714-13.143z" />
<glyph unicode="&#xf193;" glyph-name="wheelchair" horiz-adv-x="931" d="M584.571 272.571l58.286-116.571c-44-136-170.857-229.143-313.714-229.143-181.143 0-329.143 148-329.143 329.143 0 138.286 86.857 261.714 216.571 309.143l9.714-74.857c-93.143-41.143-153.143-132.571-153.143-234.286 0-141.143 114.857-256 256-256 146.857 0 265.714 125.714 255.429 272.571zM897.714 215.428l33.143-65.143-146.286-73.143c-5.143-2.857-10.857-4-16.571-4-13.714 0-26.857 8-32.571 20l-136.571 272.571h-269.714c-18.286 0-34.286 14.286-36.571 32.571l-54.857 445.143c-0.571 5.714 1.714 18.286 3.429 24 10.857 39.429 47.429 65.143 88 65.143 50.286 0 91.429-41.143 91.429-91.429 0-52-45.714-96.571-98.286-90.857l21.143-165.143h241.714v-73.143h-232.571l9.143-73.143h260c13.714 0 26.857-8 32.571-20l130.286-260z" />
</font>
</defs>
</svg>
